:version 1.10
:name ASF
:units
  mass 1
  length 1
  angle deg
:documentation
  ASF file generated by Kaydara
:root
  axis xyz
  order  tx ty tz rx ry rz
  position 0 0 0
  orientation 0 0 0
:bonedata
  begin
    id 1
    name RightUpLegDummy
    direction -1 2.30186e-007 8.31532e-007
    length 4.04083
    axis 0 0 0 xyz
  end
  begin
    id 2
    name RightUpLeg
    direction -0.000919234 -0.999985 0.00544864
    length 17.4221
    axis -3.80308 -0.00076134 -0.0523649 xyz
    dof rx ry rz
  end
  begin
    id 3
    name RightLeg
    direction -0.000919271 -0.999984 -0.00555045
    length 17.1239
    axis 4.00314 0.0181274 -0.183583 xyz
    dof rx ry rz
  end
  begin
    id 4
    name RightFoot
    direction -2.57843e-005 -4.04509e-007 1
    length 6.72091
    axis 8.18909e-005 -0.122003 -0.403008 xyz
    dof rx ry rz
  end
  begin
    id 5
    name RightToes
    direction 0.00116825 -0.014069 0.9999
    length 3.85082
    axis 0.000514414 0.540638 -0.356797 xyz
    dof rx ry rz
  end
  begin
    id 6
    name SpineDummy
    direction 0.0168869 0.966876 -0.254689
    length 6.99894
    axis 0 0 0 xyz
  end
  begin
    id 7
    name Spine
    direction -0.0132008 0.999903 0.00446247
    length 11.1999
    axis -0.00148109 0.00725429 0.756411 xyz
    dof rx ry rz
  end
  begin
    id 8
    name Spine1
    direction 0 0 0
    length 0
    axis -0.000934958 0.0245693 1.46543 xyz
    dof rx ry rz
  end
  begin
    id 9
    name HEadDummy
    direction -0.0255732 0.999672 0.00128215
    length 3.43865
    axis -0.000934958 0.0245693 1.46543 xyz
  end
  begin
    id 10
    name HEad
    direction -0.0472656 0.980052 0.19304
    length 5.12695
    axis -0.000934954 0.0245693 1.46543 xyz
    dof rx ry rz
  end
  begin
    id 11
    name LeftShoulder1Dummy
    direction 0.953098 0.301717 -0.023914
    length 3.68488
    axis -0.000934958 0.0245693 1.46543 xyz
  end
  begin
    id 12
    name LeftShoulder1
    direction 0.962466 0.271167 0.0112566
    length 3.13809
    axis -0.000934958 0.0245693 1.46543 xyz
    dof rx ry rz
  end
  begin
    id 13
    name LeftArm
    direction 0.999943 0.00455037 -0.00961766
    length 11.3419
    axis -23.1648 0.685459 1.22814 xyz
    dof rx ry rz
  end
  begin
    id 14
    name LeftForeArm
    direction 0.999332 0.0131969 0.0340885
    length 8.70632
    axis -9.90633 0.618216 0.0826942 xyz
    dof rx ry rz
  end
  begin
    id 15
    name LeftHand
    direction 0.994373 -0.0366703 0.0993905
    length 5.32135
    axis 0.00675269 0.680415 0.445699 xyz
    dof rx ry rz
  end
  begin
    id 16
    name RightShoulderDummy
    direction -0.967298 0.252589 -0.0230903
    length 3.68488
    axis -0.000934958 0.0245693 1.46543 xyz
  end
  begin
    id 17
    name RightShoulder
    direction -0.975062 0.221602 0.0120823
    length 3.13809
    axis 0.216257 0.0246515 1.45863 xyz
    dof rx ry rz
  end
  begin
    id 18
    name RightArm
    direction -0.99886 -0.00851186 -0.0469687
    length 10.3947
    axis -23.196 0.23503 -0.532632 xyz
    dof rx ry rz
  end
  begin
    id 19
    name RightForeArm
    direction -0.99909 0.00114866 0.0426317
    length 8.68355
    axis -9.91764 -0.134943 0.610517 xyz
    dof rx ry rz
  end
  begin
    id 20
    name RightHand
    direction -0.992888 -0.0489538 0.10852
    length 5.28593
    axis -0.00275396 -0.197403 0.246414 xyz
    dof rx ry rz
  end
  begin
    id 21
    name LeftUpLegDummy
    direction 1 -2.30186e-007 -8.31532e-007
    length 4.04083
    axis 0 0 0 xyz
  end
  begin
    id 22
    name LeftUpLeg
    direction -0.000920097 -1 2.79241e-006
    length 17.4221
    axis -3.48782 0.00143434 -0.0532288 xyz
    dof rx ry rz
  end
  begin
    id 23
    name LeftLeg
    direction -0.000920097 -1 2.7912e-006
    length 17.1239
    axis 3.68162 -0.00806512 -0.0529896 xyz
    dof rx ry rz
  end
  begin
    id 24
    name LeftFoot
    direction -2.57845e-005 -3.987e-007 1
    length 6.72091
    axis 3.02372e-005 -0.00147829 -0.214229 xyz
    dof rx ry rz
  end
  begin
    id 25
    name LeftToes
    direction 0.00813577 -0.00488255 0.999955
    length 3.85048
    axis 3.89895e-005 -0.0014783 -0.214229 xyz
    dof rx ry rz
  end
:hierarchy
  begin
    root RightUpLegDummy SpineDummy LeftUpLegDummy
    RightUpLegDummy RightUpLeg
    RightUpLeg RightLeg
    RightLeg RightFoot
    RightFoot RightToes
    SpineDummy Spine
    Spine Spine1
    Spine1 HEadDummy LeftShoulder1Dummy RightShoulderDummy
    HEadDummy HEad
    LeftShoulder1Dummy LeftShoulder1
    LeftShoulder1 LeftArm
    LeftArm LeftForeArm
    LeftForeArm LeftHand
    RightShoulderDummy RightShoulder
    RightShoulder RightArm
    RightArm RightForeArm
    RightForeArm RightHand
    LeftUpLegDummy LeftUpLeg
    LeftUpLeg LeftLeg
    LeftLeg LeftFoot
    LeftFoot LeftToes
  end

:SAMPLES-PER-SECOND 30
:FULLY-SPECIFIED
:DEGREES
31
root  -53.8968 34.7279 30.9909 -168.876 56.4026 -178.42
RightUpLeg  -8.30253 -14.3561 0.26176
RightLeg  6.09419 -0.303849 -0.0116935
RightFoot  3.09642 0.0108648 0.111231
RightToes  -21.6888 -0.0906076 -0.193048
Spine  -2.66334 -0.495026 0.287168
Spine1  -5.41325 -0.913633 1.12587
HEad  -71.0623 -22.8124 6.67858
LeftShoulder1  -1.94126e-019 -3.10601e-018 -2.51263e-017
LeftArm  -10.1635 25.3407 -82.9456
LeftForeArm  33.4248 -17.1452 -2.87122
LeftHand  -0.348524 -0.880992 6.57756
RightShoulder  -4.96962e-017 0 -2.36833e-017
RightArm  -29.1 -25.3849 78.278
RightForeArm  55.4823 14.326 1.2225
RightHand  -0.320266 -1.13272 -8.6506
LeftUpLeg  -8.2387 5.20832 2.59595
LeftLeg  6.67959 14.7778 0.764386
LeftFoot  4.6176 -0.047249 1.32549
LeftToes  -21.2054 1.48321e-006 1.01846e-007
32
root  -53.8853 34.7275 30.9901 -168.879 56.4427 -178.429
RightUpLeg  -8.2916 -14.2819 0.256584
RightLeg  6.09675 -0.33787 -0.0131393
RightFoot  3.06301 0.0108588 0.111317
RightToes  -21.5792 -0.0906076 -0.193048
Spine  -2.67347 -0.474607 0.288953
Spine1  -5.43282 -0.874203 1.11269
HEad  -70.8327 -22.4167 6.59056
LeftShoulder1  -1.94126e-019 -3.10601e-018 -2.51263e-017
LeftArm  -10.1651 25.3788 -82.9394
LeftForeArm  33.4379 -17.3537 -2.90567
LeftHand  -0.345518 -0.873489 6.51416
RightShoulder  -4.96962e-017 0 -2.36833e-017
RightArm  -29.1632 -25.3903 78.3149
RightForeArm  55.5512 14.2723 1.23547
RightHand  -0.320021 -1.10548 -8.6503
LeftUpLeg  -8.21295 5.32388 2.59444
LeftLeg  6.66158 14.71 0.756371
LeftFoot  4.63306 -0.0474217 1.32854
LeftToes  -21.2619 1.48321e-006 1.01846e-007
33
root  -53.8791 34.7269 30.9929 -168.895 56.4511 -178.438
RightUpLeg  -8.29645 -14.2272 0.251837
RightLeg  6.13842 -0.372072 -0.014848
RightFoot  3.01717 0.0108538 0.111388
RightToes  -21.527 -0.0906076 -0.193048
Spine  -2.6681 -0.461748 0.284886
Spine1  -5.42195 -0.849208 1.11017
HEad  -70.7556 -21.7143 6.61691
LeftShoulder1  -1.94126e-019 -3.10601e-018 -2.51263e-017
LeftArm  -10.0467 25.3698 -82.9435
LeftForeArm  33.4515 -17.5576 -2.93702
LeftHand  -0.341909 -0.890241 6.44593
RightShoulder  -4.96962e-017 0 -2.36833e-017
RightArm  -29.1187 -25.3954 78.351
RightForeArm  55.5662 14.2705 1.2338
RightHand  -0.320894 -1.08026 -8.61519
LeftUpLeg  -8.19889 5.27532 2.59604
LeftLeg  6.66439 14.7555 0.759376
LeftFoot  4.64978 -0.0476228 1.332
LeftToes  -21.2779 1.48321e-006 1.01846e-007
34
root  -53.8752 34.7263 30.9976 -168.917 56.4506 -178.451
RightUpLeg  -8.30617 -14.1987 0.254702
RightLeg  6.18539 -0.408782 -0.0167534
RightFoot  2.98876 0.01085 0.111442
RightToes  -21.5404 -0.0906076 -0.193048
Spine  -2.66751 -0.459515 0.282538
Spine1  -5.4209 -0.845053 1.11605
HEad  -70.3716 -20.7445 6.49597
LeftShoulder1  -1.94126e-019 -3.10601e-018 -2.51263e-017
LeftArm  -9.94925 25.3672 -82.956
LeftForeArm  33.4204 -17.7002 -2.95721
LeftHand  -0.340443 -0.953122 6.42606
RightShoulder  -4.96962e-017 0 -2.36833e-017
RightArm  -29.0883 -25.4146 78.3886
RightForeArm  55.5335 14.271 1.23047
RightHand  -0.320123 -1.09157 -8.64872
LeftUpLeg  -8.1932 5.28333 2.60367
LeftLeg  6.67863 14.7502 0.762743
LeftFoot  4.64304 -0.0474535 1.32967
LeftToes  -21.2536 1.48321e-006 1.01846e-007
35
root  -53.8705 34.7255 31.002 -168.948 56.4489 -178.466
RightUpLeg  -8.30924 -14.2284 0.252788
RightLeg  6.23425 -0.385654 -0.0160708
RightFoot  2.94202 0.0108474 0.11148
RightToes  -21.5313 -0.0906076 -0.193048
Spine  -2.68356 -0.461319 0.286155
Spine1  -5.45316 -0.849081 1.12373
HEad  -69.6352 -19.4962 6.37542
LeftShoulder1  -1.94126e-019 -3.10601e-018 -2.51263e-017
LeftArm  -9.88823 25.372 -82.9751
LeftForeArm  33.4447 -17.7643 -2.96735
LeftHand  -0.33886 -0.908316 6.41631
RightShoulder  -4.96962e-017 0 -2.36833e-017
RightArm  -29.1245 -25.4607 78.4223
RightForeArm  55.5074 14.2501 1.23214
RightHand  -0.320608 -1.13507 -8.63892
LeftUpLeg  -8.184 5.32905 2.60811
LeftLeg  6.69983 14.7067 0.765934
LeftFoot  4.62298 -0.0468432 1.32043
LeftToes  -21.2183 1.48321e-006 1.01846e-007
36
root  -53.8602 34.7241 31.0066 -168.977 56.3791 -178.437
RightUpLeg  -8.24523 -14.3515 0.27301
RightLeg  6.25603 -0.3177 -0.0131665
RightFoot  2.92498 0.010846 0.111499
RightToes  -21.5244 -0.0906076 -0.193048
Spine  -2.69427 -0.49478 0.311611
Spine1  -5.4752 -0.915352 1.17633
HEad  -68.7631 -17.8139 6.12835
LeftShoulder1  -1.94126e-019 -3.10601e-018 -2.51263e-017
LeftArm  -9.85737 25.3365 -83.0312
LeftForeArm  33.2779 -17.6782 -2.95771
LeftHand  -0.33705 -0.867626 6.45591
RightShoulder  -4.96962e-017 0 -2.36833e-017
RightArm  -29.263 -25.5156 78.4255
RightForeArm  55.6266 14.2251 1.23366
RightHand  -0.320295 -1.09009 -8.66886
LeftUpLeg  -8.14652 5.30765 2.65576
LeftLeg  6.73133 14.6482 0.770934
LeftFoot  4.61777 -0.0463962 1.31369
LeftToes  -21.3395 1.48321e-006 1.01846e-007
37
root  -53.8547 34.7212 31.0114 -169.006 56.4263 -178.457
RightUpLeg  -8.26141 -14.2737 0.265717
RightLeg  6.30848 -0.35636 -0.0152261
RightFoot  2.86687 0.010846 0.1115
RightToes  -21.4919 -0.0906076 -0.193048
Spine  -2.70481 -0.480317 0.310706
Spine1  -5.4964 -0.887371 1.17357
HEad  -67.8361 -16.1127 6.05951
LeftShoulder1  -1.94126e-019 -3.10601e-018 -2.51263e-017
LeftArm  -9.91589 25.3226 -83.0545
LeftForeArm  33.3263 -17.7015 -2.96628
LeftHand  -0.337256 -0.899237 6.44225
RightShoulder  -4.96962e-017 0 -2.36833e-017
RightArm  -29.3571 -25.5299 78.4543
RightForeArm  55.6457 14.1636 1.24162
RightHand  -0.321133 -1.12932 -8.65534
LeftUpLeg  -8.13569 5.30582 2.65269
LeftLeg  6.76102 14.6952 0.780903
LeftFoot  4.5976 -0.0462818 1.31205
LeftToes  -21.3251 1.48321e-006 1.01846e-007
38
root  -53.8511 34.7192 31.018 -169.048 56.4307 -178.477
RightUpLeg  -8.27139 -14.2179 0.255642
RightLeg  6.38782 -0.392991 -0.0174455
RightFoot  2.81715 0.0108474 0.11148
RightToes  -21.4424 -0.0906076 -0.193048
Spine  -2.71255 -0.468926 0.318701
Spine1  -5.51193 -0.865363 1.18941
HEad  -67.1803 -14.8272 6.10798
LeftShoulder1  -1.94126e-019 -3.10601e-018 -2.51263e-017
LeftArm  -9.90918 25.2825 -83.0814
LeftForeArm  33.4458 -17.7484 -2.9783
LeftHand  -0.337459 -0.880894 6.44174
RightShoulder  -4.96962e-017 0 -2.36833e-017
RightArm  -29.3707 -25.5771 78.4554
RightForeArm  55.6847 14.1441 1.24365
RightHand  -0.321582 -1.10878 -8.66281
LeftUpLeg  -8.11771 5.23826 2.65693
LeftLeg  6.78241 14.7701 0.790264
LeftFoot  4.57276 -0.045891 1.30604
LeftToes  -21.3405 1.48321e-006 1.01846e-007
39
root  -53.8485 34.7189 31.0266 -169.111 56.4348 -178.494
RightUpLeg  -8.26964 -14.1876 0.249747
RightLeg  6.47465 -0.429053 -0.0197951
RightFoot  2.76365 0.0108486 0.111462
RightToes  -21.4296 -0.0906076 -0.193048
Spine  -2.70726 -0.457361 0.319359
Spine1  -5.50148 -0.843273 1.19268
HEad  -66.6441 -13.922 6.00115
LeftShoulder1  -1.94126e-019 -3.10601e-018 -2.51263e-017
LeftArm  -9.94226 25.2657 -83.0917
LeftForeArm  33.4665 -17.8846 -2.99843
LeftHand  -0.339614 -0.916612 6.3788
RightShoulder  -4.96962e-017 0 -2.36833e-017
RightArm  -29.3231 -25.6378 78.4722
RightForeArm  55.6528 14.1556 1.24255
RightHand  -0.321768 -1.10461 -8.68209
LeftUpLeg  -8.07077 5.32491 2.66189
LeftLeg  6.77517 14.6746 0.783421
LeftFoot  4.5765 -0.0457544 1.30392
LeftToes  -21.3573 1.48321e-006 1.01846e-007
40
root  -53.8413 34.7211 31.0346 -169.174 56.3668 -178.464
RightUpLeg  -8.16257 -14.1858 0.269681
RightLeg  6.46483 -0.50225 -0.0232743
RightFoot  2.74478 0.0108485 0.111464
RightToes  -21.2625 -0.0906076 -0.193048
Spine  -2.68902 -0.473182 0.346356
Spine1  -5.46503 -0.874501 1.25263
HEad  -66.1201 -13.3712 5.71942
LeftShoulder1  -1.94126e-019 -3.10601e-018 -2.51263e-017
LeftArm  -9.74507 25.2772 -83.1017
LeftForeArm  33.1666 -18.0531 -3.01602
LeftHand  -0.341383 -0.906502 6.42092
RightShoulder  -4.96962e-017 0 -2.36833e-017
RightArm  -29.4181 -25.6614 78.4538
RightForeArm  55.79 14.1731 1.23829
RightHand  -0.324465 -1.09025 -8.6071
LeftUpLeg  -7.96675 5.35988 2.70945
LeftLeg  6.71682 14.533 0.761342
LeftFoot  4.67611 -0.0466523 1.31779
LeftToes  -21.7658 1.48321e-006 1.01846e-007
41
root  -53.839 34.7371 31.0308 -169.317 56.4725 -178.581
RightUpLeg  -7.99481 -14.0995 0.179744
RightLeg  6.20338 -0.493945 -0.0206248
RightFoot  2.89796 0.0108475 0.111478
RightToes  -21.4821 -0.0906076 -0.193048
Spine  -2.65985 -0.368511 0.493997
Spine1  -5.40205 -0.667433 1.56943
HEad  -65.8467 -13.0539 5.02732
LeftShoulder1  -1.94126e-019 -3.10601e-018 -2.51263e-017
LeftArm  -9.71464 25.0688 -83.6191
LeftForeArm  33.041 -17.2289 -2.83074
LeftHand  -0.331871 -0.924216 6.22886
RightShoulder  -4.96962e-017 0 -2.36833e-017
RightArm  -30.0124 -25.4832 78.0137
RightForeArm  56.2944 13.9498 1.26172
RightHand  -0.319709 -1.09677 -8.8161
LeftUpLeg  -7.73956 5.35855 2.63315
LeftLeg  6.38343 14.6756 0.684044
LeftFoot  4.79614 -0.049778 1.36619
LeftToes  -21.4004 1.48321e-006 1.01846e-007
42
root  -53.826 34.7216 31.0404 -169.325 56.3933 -178.515
RightUpLeg  -8.06495 -14.1348 0.231116
RightLeg  6.52008 -0.537301 -0.0254923
RightFoot  2.72442 0.010846 0.111499
RightToes  -21.3821 -0.0906076 -0.193048
Spine  -2.66542 -0.464038 0.358602
Spine1  -5.41822 -0.857298 1.27865
HEad  -65.309 -12.4689 5.35629
LeftShoulder1  -1.94126e-019 -3.10601e-018 -2.51263e-017
LeftArm  -9.58281 25.3616 -83.0807
LeftForeArm  33.0256 -18.2758 -3.04438
LeftHand  -0.33893 -0.925336 6.35812
RightShoulder  -4.96962e-017 0 -2.36833e-017
RightArm  -29.4588 -25.6516 78.4459
RightForeArm  55.7667 14.1636 1.23988
RightHand  -0.325757 -1.07578 -8.61482
LeftUpLeg  -7.83345 5.14228 2.71567
LeftLeg  6.72036 14.7914 0.775502
LeftFoot  4.63769 -0.0474501 1.32972
LeftToes  -21.3862 1.48321e-006 1.01846e-007
